<svg width="50" height="37" viewBox="0 0 50 37" fill="none" xmlns="http://www.w3.org/2000/svg">
<path fill-rule="evenodd" clip-rule="evenodd" d="M18.7375 14.0426L18.7375 9.11035L20.5693 9.11035L20.5693 14.0426L18.7375 14.0426Z" fill="#303030"/>
<path fill-rule="evenodd" clip-rule="evenodd" d="M21.8528 1.5018C22.0231 1.13052 22.4111 0.909117 22.8174 0.951445L43.7442 3.13177C44.3979 3.19988 44.7879 3.89393 44.506 4.4877L41.8291 10.1261L48.4909 8.49568C49.4844 8.25252 50.1106 9.53284 49.3086 10.1677L39.9187 17.6016C39.81 17.6877 39.6837 17.749 39.5488 17.7812L30.7693 19.8783L30.3437 18.0966L38.9341 16.0447L45.0118 11.2331L40.4681 12.3452C39.6886 12.5359 39.0369 11.7364 39.3811 11.0114L42.3181 4.82492L23.2549 2.83877L20.29 9.30408C20.0652 9.7944 19.4784 10.0003 18.9965 9.75813L11.9389 6.21142L2.78179 12.4275L9.60822 15.3244L8.89263 17.0107L0.580536 13.4833C-0.113894 13.1886 -0.206496 12.242 0.417657 11.8183L11.3374 4.40579C11.6231 4.21183 11.9915 4.1877 12.3001 4.34279L19.0048 7.7122L21.8528 1.5018Z" fill="#303030"/>
<path fill-rule="evenodd" clip-rule="evenodd" d="M19.7119 10.0584L13.7837 14.0604L12.7588 12.5422L18.8553 8.42654C19.1088 8.2554 19.4151 8.18051 19.719 8.2154L39.7858 10.5195C40.9326 10.6511 41.3351 12.1124 40.4175 12.8127L31.5106 19.6099C31.239 19.8172 30.8958 19.9075 30.5573 19.8608L9.09229 16.8955L9.34296 15.081L30.5812 18.0149L38.2221 12.1838L19.7119 10.0584Z" fill="#303030"/>
<path fill-rule="evenodd" clip-rule="evenodd" d="M7.08465 13.3515L9.79214 15.2877L8.72658 16.7777L4.18387 13.5291C3.09127 12.7477 3.78293 11.0255 5.11247 11.2169L26.0268 14.2277C26.2632 14.2617 26.4854 14.3611 26.6683 14.5146L31.3763 18.4655L30.1988 19.8687L25.6108 16.0185L7.08465 13.3515Z" fill="#303030"/>
<path fill-rule="evenodd" clip-rule="evenodd" d="M39.6629 26.3761V15.7549H41.4947V26.6181C41.4947 26.9778 41.3436 27.3209 41.0783 27.5638L31.3428 36.4775C31.054 36.7419 30.6602 36.8599 30.2736 36.7978L9.42997 33.4495C8.80827 33.3496 8.35107 32.8131 8.35107 32.1834L8.3511 15.9199L10.1829 15.9199L10.1829 31.7151L30.3018 34.947L39.6629 26.3761Z" fill="#303030"/>
<path fill-rule="evenodd" clip-rule="evenodd" d="M29.7969 35.8845V19.0303H31.6287V35.8845H29.7969Z" fill="#303030"/>
</svg>
