<svg width="215" height="45" viewBox="0 0 215 45" fill="none" xmlns="http://www.w3.org/2000/svg">
<path d="M0.264648 43.1196L1.53683 42.7853C4.1462 42.0517 4.2762 41.8474 4.2762 38.8387V16.6452C4.2762 13.7712 4.2112 13.5715 2.07078 12.0997L0 10.6278V9.95925L15.9116 8.28776L16.3805 8.62206V13.6365H16.5802C20.0578 10.7625 24.204 8.28776 29.0838 8.28776C33.0303 8.28776 35.7697 10.0939 36.9072 13.6365H37.1069C40.6495 10.6929 44.7957 8.28776 49.7451 8.28776C54.7596 8.28776 58.1676 11.2964 58.1676 17.2488V38.8434C58.1676 41.917 58.2326 41.9867 61.0416 42.7899L62.3138 43.1242V44.1921H42.5903V43.1242L43.6582 42.8549C45.6639 42.2513 45.7986 42.1863 45.7986 38.8434V19.5192C45.7986 15.7769 44.7957 14.774 41.9867 14.774C40.1156 14.774 38.4441 14.9737 37.2415 15.243C37.3762 15.7119 37.4412 17.1838 37.4412 17.9174V38.8434C37.4412 41.9867 37.5062 42.1863 39.5816 42.8549L40.5845 43.1242V44.1921H21.8639V43.1242L22.8668 42.8549C24.9376 42.2513 25.0722 42.1213 25.0722 38.8434V19.5192C25.0722 15.7073 24.0043 14.774 21.395 14.774C19.5238 14.774 17.8523 14.9737 16.6498 15.308V38.8434C16.6498 42.0517 16.7148 42.2513 18.7902 42.8549L19.8581 43.1242V44.1921H0.269288V43.1196H0.264648ZM98.9471 41.4481V42.386C97.5449 43.3889 94.8705 44.9954 90.3204 44.9954C86.2438 44.9954 83.6344 43.4585 82.6965 40.6495H82.4969C80.6908 42.7899 78.0164 44.9954 73.0716 44.9954C67.1239 44.9954 63.377 40.4452 63.377 35.2311C63.377 28.8795 68.0061 24.8122 75.7645 24.2876L82.0326 23.8697V18.3863C82.0326 12.434 81.429 10.1635 78.3553 10.1635C76.4842 10.1635 75.616 10.5628 75.4813 12.9726C75.147 18.4559 73.7448 19.8581 69.9979 19.8581C66.5203 19.8581 64.8488 18.3863 64.8488 15.6469C64.8488 11.1664 69.9283 8.29241 80.6258 8.29241C89.1178 8.29241 94.3969 10.8321 94.3969 17.7177V36.3733C94.3969 39.1823 94.6662 40.1156 95.8687 40.7842C96.737 41.2485 98.2088 41.4481 98.9471 41.4481ZM82.0326 26.0705L80.2265 26.1912C76.8835 26.4605 75.4813 28.6706 75.4813 33.3507C75.4813 37.8962 77.0182 40.2409 79.0936 40.2409C80.4958 40.2409 81.4986 39.707 82.0372 38.8387V26.0705H82.0326ZM183.417 44.1921H204.209V43.0546L202.537 42.7203C200.132 42.321 199.798 42.0517 199.798 38.8434V15.9116C200.601 15.243 201.938 14.774 202.871 14.774C203.675 14.774 204.009 15.1083 204.478 16.1112C205.346 18.052 206.484 19.5192 209.557 19.5192C212.701 19.5192 214.906 17.3788 214.906 13.7015C214.906 10.1589 212.701 8.28776 209.557 8.28776C205.346 8.28776 201.734 11.5657 199.728 13.9708H199.528V8.68707L199.059 8.28776L183.148 9.95925V10.6278L185.219 12.0997C187.359 13.5019 187.424 13.7712 187.424 16.6452V38.8434C187.424 41.852 187.29 42.0517 184.685 42.7899L183.413 43.1242V44.1921H183.417ZM171.522 38.978C175.199 38.978 178.143 37.9751 180.747 36.6379V37.8405C178.407 40.9838 173.258 44.9954 165.904 44.9954C153.934 44.9954 147.986 38.6437 147.986 27.078C147.986 14.709 157.282 8.29241 166.103 8.29241C175.733 8.29241 181.75 14.5094 182.015 26.0751H160.263C160.727 36.4151 164.632 38.978 171.522 38.978ZM160.221 23.8651L170.05 23.1965C170.05 13.7712 169.047 10.0939 165.57 10.0939C162.561 10.0939 160.355 12.7033 160.221 22.7972V23.8651ZM143.404 39.7116C139.861 39.7116 139.058 38.6437 139.058 34.8318V11.7004H146.937L147.281 9.16065H139.058V0H135.984C132.219 7.74917 125.932 9.16065 122.947 9.16065C119.961 9.16065 114.39 9.16065 114.39 9.16065V0H111.316C109.176 4.8798 103.961 8.82635 98.2785 10.8971V11.7004H102.021V34.7668C102.021 41.9217 105.029 44.9954 112.184 44.9954C118.202 44.9954 121.345 42.256 123.151 40.1806V39.1127C122.083 39.382 120.342 39.7163 118.74 39.7163C115.198 39.7163 114.394 38.6484 114.394 34.8365V11.705H126.694V34.7715C126.694 41.9263 129.702 45 136.857 45C142.875 45 146.018 42.2606 147.824 40.1852V39.1173C146.747 39.3773 145.01 39.7116 143.404 39.7116Z" fill="#303030"/>
</svg>
