<svg width="35" height="34" viewBox="0 0 35 34" fill="none" xmlns="http://www.w3.org/2000/svg">
<path fill-rule="evenodd" clip-rule="evenodd" d="M12.8175 22.8438C18.4216 22.8438 22.9646 18.3247 22.9646 12.7501C22.9646 7.1754 18.4216 2.65626 12.8175 2.65626C7.21335 2.65626 2.67031 7.1754 2.67031 12.7501C2.67031 18.3247 7.21335 22.8438 12.8175 22.8438ZM12.8175 25.5001C19.8964 25.5001 25.635 19.7917 25.635 12.7501C25.635 5.70839 19.8964 0 12.8175 0C5.73858 0 0 5.70839 0 12.7501C0 19.7917 5.73858 25.5001 12.8175 25.5001Z" fill="#303030"/>
<path fill-rule="evenodd" clip-rule="evenodd" d="M33.1119 33.9999L20.2944 21.2498L22.1826 19.3716L35.0001 32.1216L33.1119 33.9999Z" fill="#303030"/>
</svg>
